# xmcd CD database file
#
# Track frame offsets:
#	150
#	10632
#	43152
#	71477
#	83740
#	92975
#	102225
#	126187
#	138147
#	155950
#	172325
#	180155
#	195057
#	210017
#	219985
#	231487
#
# Disc length: 3238 seconds
#
# Revision: 2
# Processed by: cddbd v1.4PL0 Copyright (c) Steve Scherf et al.
# Submitted via: CDex 1.40Beta9
#
DISCID=d00ca410
DTITLE=Buddy Guy - The Treasure Untold
DYEAR=1992
DGENRE=Blues
TTITLE0=First Time I Met The Blues
TTITLE1=Stone Crazy
TTITLE2=I Found A True Love
TTITLE3=Skippin'
TTITLE4=The Treasure Untold
TTITLE5=American Bandstand
TTITLE6=Don't Know Which Way To Go
TTITLE7=Buddy's Boogie
TTITLE8=Worried Blues (Stick Around)
TTITLE9=Moanin'
TTITLE10=I Dig Your Wig
TTITLE11=My Time After Awhile
TTITLE12=Night Flight
TTITLE13=You Got To Use Your Head
TTITLE14=Keep It To Yourself
TTITLE15=My Mother
EXTD=Charley Blues Masterworks Vol. 11 YEAR: 1992 ID3G: 0
EXTT0=
EXTT1=
EXTT2=
EXTT3=
EXTT4=
EXTT5=
EXTT6=
EXTT7=
EXTT8=
EXTT9=
EXTT10=
EXTT11=
EXTT12=
EXTT13=
EXTT14=
EXTT15=
PLAYORDER=
